<?xml version="1.0" standalone="no"?>
<!DOCTYPE svg PUBLIC "-//W3C//DTD SVG 20010904//EN"
 "http://www.w3.org/TR/2001/REC-SVG-20010904/DTD/svg10.dtd">
<svg version="1.0" xmlns="http://www.w3.org/2000/svg"
 width="224.000000pt" height="224.000000pt" viewBox="0 0 224.000000 224.000000"
 preserveAspectRatio="xMidYMid meet">
<metadata>
Created by potrace 1.11, written by Peter Selinger 2001-2013
</metadata>
<g transform="translate(0.000000,224.000000) scale(0.100000,-0.100000)"
fill="#000000" stroke="none">
<path d="M145 2200 c-14 -22 -25 -46 -25 -54 0 -8 46 -93 103 -188 56 -95 140
-237 186 -315 53 -90 90 -143 100 -143 18 0 91 47 91 58 0 4 -23 45 -51 91
-27 46 -48 90 -45 97 4 9 150 13 688 16 616 3 686 5 709 20 15 9 67 89 123
190 l98 173 -25 45 -26 45 -950 3 -951 2 -25 -40z m1795 -104 c0 -8 -26 -58
-57 -110 l-58 -94 -700 -4 c-385 -2 -704 -2 -710 0 -16 4 -127 201 -120 212 4
6 299 10 826 10 708 0 819 -2 819 -14z"/>
<path d="M600 1414 c-24 -39 -27 -50 -18 -68 10 -19 58 -103 151 -262 47 -82
56 -84 342 -84 143 0 246 -4 250 -10 8 -14 -158 -315 -175 -315 -8 0 -49 52
-93 115 -43 63 -82 116 -87 118 -11 4 -100 -47 -100 -56 1 -4 47 -86 104 -182
l102 -175 56 -3 c68 -4 49 -28 233 297 l139 245 -26 45 -25 46 -301 3 -300 2
-51 80 c-84 132 -125 120 403 120 l455 0 19 25 c11 13 25 38 32 56 11 26 11
32 -1 40 -8 5 -252 9 -547 9 l-532 0 -30 -46z"/>
<path d="M930 301 c0 -33 -4 -40 -22 -44 l-23 -4 23 -2 c21 -1 22 -5 22 -81
l0 -80 68 2 67 2 -57 3 -58 4 0 74 0 74 38 4 37 4 -37 1 c-37 2 -38 3 -38 42
0 22 -4 40 -10 40 -5 0 -10 -18 -10 -39z"/>
<path d="M1534 215 c0 -78 1 -97 3 -47 l4 83 72 -3 72 -3 6 -80 5 -80 2 88 2
87 -79 0 -80 0 -4 43 c-2 23 -3 -16 -3 -88z"/>
<path d="M568 293 c12 -2 30 -2 40 0 9 3 -1 5 -23 4 -22 0 -30 -2 -17 -4z"/>
<path d="M132 128 l2 -133 3 128 4 128 72 -3 72 -3 3 -72 3 -72 -63 -4 -63 -3
68 -2 67 -2 0 85 0 85 -85 0 -85 0 2 -132z"/>
<path d="M418 253 l82 -4 0 -74 0 -75 -75 0 -75 0 0 50 0 50 55 0 c32 0 55 4
55 10 0 7 -22 10 -57 8 l-58 -3 -3 -62 -3 -63 86 0 85 0 0 85 0 85 -87 -2 -88
-2 83 -3z"/>
<path d="M585 251 l40 -6 6 -80 5 -80 2 88 2 87 -47 -1 -48 -2 40 -6z"/>
<path d="M682 173 l2 -88 3 83 4 83 72 -3 72 -3 6 -80 5 -80 2 88 2 87 -85 0
-85 0 2 -87z"/>
<path d="M1320 230 l0 -30 75 0 75 0 0 -50 0 -49 -77 -4 -78 -3 88 -2 88 -2
-3 63 -3 62 -77 3 c-59 2 -78 6 -78 17 0 11 20 15 83 18 l82 3 -87 2 -88 2 0
-30z"/>
<path d="M1740 175 l0 -85 85 0 85 0 0 85 0 85 -85 0 -85 0 0 -85z m160 0 l0
-75 -75 0 -75 0 0 68 c0 38 3 72 7 75 3 4 37 7 75 7 l68 0 0 -75z"/>
<path d="M1952 133 l2 -128 6 120 5 120 73 3 72 3 0 -75 0 -75 -57 -4 -58 -3
63 -2 62 -2 0 85 0 85 -85 0 -85 0 2 -127z"/>
</g>
</svg>
